<svg width="25" height="25" viewBox="0 0 25 25" fill="none" xmlns="http://www.w3.org/2000/svg">
<path d="M8.33341 22.9163C8.90871 22.9163 9.37508 22.45 9.37508 21.8747C9.37508 21.2994 8.90871 20.833 8.33341 20.833C7.75812 20.833 7.29175 21.2994 7.29175 21.8747C7.29175 22.45 7.75812 22.9163 8.33341 22.9163Z" stroke="#2C332D" stroke-width="2" stroke-linecap="round" stroke-linejoin="round"/>
<path d="M19.7917 22.9163C20.367 22.9163 20.8333 22.45 20.8333 21.8747C20.8333 21.2994 20.367 20.833 19.7917 20.833C19.2164 20.833 18.75 21.2994 18.75 21.8747C18.75 22.45 19.2164 22.9163 19.7917 22.9163Z" stroke="#2C332D" stroke-width="2" stroke-linecap="round" stroke-linejoin="round"/>
<path d="M2.1355 2.13574H4.21883L6.98966 15.0732C7.09131 15.5471 7.35495 15.9706 7.7352 16.271C8.11545 16.5714 8.58852 16.7299 9.073 16.7191H19.2605C19.7346 16.7183 20.1943 16.5558 20.5637 16.2585C20.933 15.9611 21.1898 15.5467 21.2917 15.0837L23.0105 7.34408H5.33341" stroke="#2C332D" stroke-width="2" stroke-linecap="round" stroke-linejoin="round"/>
</svg>
