<svg width="16" height="16" viewBox="0 0 16 16" fill="none" xmlns="http://www.w3.org/2000/svg">
<g clip-path="url(#clip0_1552_1884)">
<path d="M8 1.442C10.136 1.442 10.3893 1.45 11.2333 1.48867C13.4013 1.58733 14.414 2.616 14.5127 4.768C14.5513 5.61133 14.5587 5.86467 14.5587 8.00067C14.5587 10.1373 14.5507 10.39 14.5127 11.2333C14.4133 13.3833 13.4033 14.414 11.2333 14.5127C10.3893 14.5513 10.1373 14.5593 8 14.5593C5.864 14.5593 5.61067 14.5513 4.76733 14.5127C2.594 14.4133 1.58667 13.38 1.488 11.2327C1.44933 10.3893 1.44133 10.1367 1.44133 8C1.44133 5.864 1.45 5.61133 1.488 4.76733C1.58733 2.616 2.59733 1.58667 4.76733 1.488C5.61133 1.45 5.864 1.442 8 1.442ZM8 0C5.82733 0 5.55533 0.00933333 4.702 0.048C1.79667 0.181333 0.182 1.79333 0.0486667 4.70133C0.00933333 5.55533 0 5.82733 0 8C0 10.1727 0.00933333 10.4453 0.048 11.2987C0.181333 14.204 1.79333 15.8187 4.70133 15.952C5.55533 15.9907 5.82733 16 8 16C10.1727 16 10.4453 15.9907 11.2987 15.952C14.2013 15.8187 15.82 14.2067 15.9513 11.2987C15.9907 10.4453 16 10.1727 16 8C16 5.82733 15.9907 5.55533 15.952 4.702C15.8213 1.79933 14.2073 0.182 11.2993 0.0486667C10.4453 0.00933333 10.1727 0 8 0Z" fill="white"/>
</g>
<defs>
<clipPath id="clip0_1552_1884">
<rect width="16" height="16" fill="white"/>
</clipPath>
</defs>
</svg>
